<?xml version="1.0" encoding="UTF-8" standalone="no"?>
<!-- Generator: Adobe Illustrator 16.0.0, SVG Export Plug-In . SVG Version: 6.00 Build 0)  -->

<svg
   xmlns:dc="http://purl.org/dc/elements/1.1/"
   xmlns:cc="http://creativecommons.org/ns#"
   xmlns:rdf="http://www.w3.org/1999/02/22-rdf-syntax-ns#"
   xmlns:svg="http://www.w3.org/2000/svg"
   xmlns="http://www.w3.org/2000/svg"
   xmlns:sodipodi="http://sodipodi.sourceforge.net/DTD/sodipodi-0.dtd"
   xmlns:inkscape="http://www.inkscape.org/namespaces/inkscape"
   version="1.1"
   id="Capa_1"
   x="0px"
   y="0px"
   width="795.035px"
   height="795.035px"
   viewBox="0 0 795.035 795.035"
   style="enable-background:new 0 0 795.035 795.035;"
   xml:space="preserve"
   sodipodi:docname="book.svg"
   inkscape:version="0.92.4 5da689c313, 2019-01-14"><metadata
   id="metadata41"><rdf:RDF><cc:Work
       rdf:about=""><dc:format>image/svg+xml</dc:format><dc:type
         rdf:resource="http://purl.org/dc/dcmitype/StillImage" /></cc:Work></rdf:RDF></metadata><defs
   id="defs39" /><sodipodi:namedview
   pagecolor="#ffffff"
   bordercolor="#666666"
   borderopacity="1"
   objecttolerance="10"
   gridtolerance="10"
   guidetolerance="10"
   inkscape:pageopacity="0"
   inkscape:pageshadow="2"
   inkscape:window-width="1312"
   inkscape:window-height="704"
   id="namedview37"
   showgrid="false"
   inkscape:zoom="0.29684229"
   inkscape:cx="-368.88275"
   inkscape:cy="397.51749"
   inkscape:window-x="54"
   inkscape:window-y="30"
   inkscape:window-maximized="1"
   inkscape:current-layer="Capa_1" />
<g
   id="g4"
   style="fill:#ffffff">
	<path
   d="M0,647.589c0,49.892,40.588,90.479,90.479,90.479h20.108h552.079h40.211h41.895v-40.212h-41.895V597.322h41.895v-17.594   h20.104h30.16v-40.212h-30.16V438.989h30.16v-40.211h-30.16h-2.513v-13.395v-20.107v-0.863l-49.647-92.992h52.161v-54.073   L633.665,56.968H170.738L51.356,245.075c-20.417,16.612-33.76,41.625-33.76,69.935c0,49.581,40.114,89.89,89.593,90.383   c-33.291,13.372-56.922,45.847-56.922,83.864c0,27.604,12.688,52.046,32.242,68.656C36.395,562.022,0,600.426,0,647.589z    M57.806,315.01c0-18.75,10.429-34.946,25.686-43.586h599.278v93.854H108.074C80.359,365.276,57.806,342.72,57.806,315.01z    M140.747,438.991h20.106h563.809v100.526H160.853h-20.106c-27.715,0-50.268-22.541-50.268-50.26   C90.48,461.53,113.032,438.991,140.747,438.991z M90.48,597.322h20.108h552.079v100.533h-552.08H90.479   c-27.713,0-50.265-22.541-50.265-50.267C40.214,619.862,62.767,597.322,90.48,597.322z"
   id="path2"
   style="fill:#ffffff" />
</g>
<g
   id="g6">
</g>
<g
   id="g8">
</g>
<g
   id="g10">
</g>
<g
   id="g12">
</g>
<g
   id="g14">
</g>
<g
   id="g16">
</g>
<g
   id="g18">
</g>
<g
   id="g20">
</g>
<g
   id="g22">
</g>
<g
   id="g24">
</g>
<g
   id="g26">
</g>
<g
   id="g28">
</g>
<g
   id="g30">
</g>
<g
   id="g32">
</g>
<g
   id="g34">
</g>
</svg>