<?xml version="1.0" encoding="UTF-8" standalone="no"?>
<!-- Generator: Adobe Illustrator 19.0.0, SVG Export Plug-In . SVG Version: 6.00 Build 0)  -->

<svg
   xmlns:dc="http://purl.org/dc/elements/1.1/"
   xmlns:cc="http://creativecommons.org/ns#"
   xmlns:rdf="http://www.w3.org/1999/02/22-rdf-syntax-ns#"
   xmlns:svg="http://www.w3.org/2000/svg"
   xmlns="http://www.w3.org/2000/svg"
   xmlns:sodipodi="http://sodipodi.sourceforge.net/DTD/sodipodi-0.dtd"
   xmlns:inkscape="http://www.inkscape.org/namespaces/inkscape"
   version="1.1"
   id="Layer_1"
   x="0px"
   y="0px"
   viewBox="0 0 512 512"
   style="enable-background:new 0 0 512 512;"
   xml:space="preserve"
   width="512"
   height="512"
   sodipodi:docname="wool.svg"
   inkscape:version="0.92.4 5da689c313, 2019-01-14"><metadata
   id="metadata13"><rdf:RDF><cc:Work
       rdf:about=""><dc:format>image/svg+xml</dc:format><dc:type
         rdf:resource="http://purl.org/dc/dcmitype/StillImage" /></cc:Work></rdf:RDF></metadata><defs
   id="defs11" /><sodipodi:namedview
   pagecolor="#ffffff"
   bordercolor="#666666"
   borderopacity="1"
   objecttolerance="10"
   gridtolerance="10"
   guidetolerance="10"
   inkscape:pageopacity="0"
   inkscape:pageshadow="2"
   inkscape:window-width="1312"
   inkscape:window-height="704"
   id="namedview9"
   showgrid="false"
   inkscape:zoom="0.4609375"
   inkscape:cx="256"
   inkscape:cy="256"
   inkscape:window-x="54"
   inkscape:window-y="30"
   inkscape:window-maximized="1"
   inkscape:current-layer="Layer_1" />
<g
   id="g6"
   style="fill:#ffffff">
	<path
   d="M166,226c0,5.52,4.48,10,10,10s10-4.48,10-10c0-5.52-4.48-10-10-10S166,220.48,166,226z"
   id="path2"
   style="fill:#ffffff" />
	<path
   d="M50,110c2.377,0,4.736-0.181,7.066-0.512l53.846,53.846C81.726,197.828,66,241.08,66,286   c0,33.873,8.96,68.426,28.103,99.466l-65.314,65.323c-5.693,5.693-8.829,13.177-8.829,21.071C19.96,488.479,33.436,502,50,502   c7.894,0,15.625-3.203,21.21-8.789l62.126-62.116C167.847,460.275,211.064,476,256,476c44.129,0,87.513-15.196,122.662-44.906   l62.127,62.117C446.423,498.843,454.027,502,462,502c12.365,0,22.985-7.096,27.716-18.518c4.731-11.423,2.238-23.95-6.505-32.692   l-65.315-65.325C435.539,356.842,446,322.798,446,286c0-44.049-15.158-87.49-44.913-122.665l53.846-53.847   c2.33,0.331,4.69,0.512,7.066,0.512c27.57,0,50-22.43,50-50s-22.43-50-50-50s-50,22.43-50,50c0,2.376,0.181,4.736,0.512,7.066   l-57.042,57.041c-61.386-37.84-138.685-37.165-198.936-0.005L99.488,67.066C99.819,64.735,100,62.375,100,60   c0-27.57-22.43-50-50-50S0,32.43,0,60S22.43,110,50,110z M91.705,87.565l48.114,48.106c-5.29,4.095-10.372,8.459-15.201,13.083   l-47.052-47.052C83.176,97.987,87.991,93.173,91.705,87.565z M292.053,290.529c0.007,0.006,0.014,0.013,0.021,0.018   c0.007,0.005,0.014,0.01,0.021,0.015c0.026,0.02,0.051,0.041,0.076,0.061c36.243,27.811,80.118,43.709,126.39,45.239   c-4.177,13.657-10.06,26.686-17.586,38.936c-79.473-7.668-152.041-52.357-195.01-120.427c-2.948-4.671-9.123-6.065-13.794-3.118   c-4.67,2.948-6.066,9.124-3.118,13.794c23,36.438,54.584,67.571,91.336,90.035c32.676,19.974,69.486,33.062,107.391,38.301   c-11.115,13.622-23.714,24.781-36.789,33.616c-51.702-12.505-100.374-38.002-140.98-75.198   c-45.809-41.925-79.795-97.326-95.086-160.688c9.086-13.469,20.225-25.907,33.695-36.901c1.659,12.079,4.09,24.067,7.305,35.807   c1.449,5.291,6.924,8.472,12.286,7.003c5.327-1.459,8.462-6.96,7.003-12.286c-3.913-14.286-6.6-28.963-8.016-43.714   c12.225-7.515,25.261-13.403,38.933-17.585C208.362,191.049,241.213,251.455,292.053,290.529z M305.869,123.44   c13.658,4.177,26.687,10.061,38.929,17.583c-4.426,46.104-21.03,89.875-48.271,127.376c-10.354-8.803-19.8-18.603-28.17-29.31   C291.621,204.731,304.496,165.034,305.869,123.44z M434.433,101.703l-47.05,47.05c-4.823-4.618-9.901-8.979-15.197-13.077   l48.112-48.111C424.013,93.176,428.826,97.99,434.433,101.703z M347.531,300.021c-12.315-5.257-24.083-11.759-35.148-19.414   c27.302-37.428,44.749-80.686,51.013-126.38c13.111,10.698,24.304,23.022,33.595,36.768   C387.498,230.287,370.894,266.913,347.531,300.021z M161.127,427.083c-13.179-8.887-25.821-20.114-36.904-33.694   c26.745-3.659,52.657-11.137,77.303-22.35c11.132,9.799,22.904,18.894,35.196,27.155   C212.821,411.027,187.477,420.717,161.127,427.083z M157.387,324.141c8.731,11.229,18.186,21.933,28.246,31.993   c-23.817,9.932-48.829,16.203-74.608,18.67c-7.517-12.228-13.406-25.266-17.588-38.941   C115.339,335.138,136.786,331.206,157.387,324.141z M101.019,216.057c9.969,32.395,24.713,62.903,43.995,91.091   c-18.208,5.617-37.103,8.574-56.362,8.823C86.9,306.117,86,296.071,86,286C86,261.699,91.147,237.91,101.019,216.057z    M57.069,479.068C55.206,480.932,52.629,482,50,482c-6.285,0-10.04-5.155-10.04-10.14c0-1.806,0.516-4.474,2.972-6.93l62.74-62.749   c4.094,5.288,8.459,10.372,13.086,15.208L57.069,479.068z M186.039,440.973c24.395-7.525,47.858-17.795,70.055-30.687   c22.175,12.849,45.63,23.095,70.03,30.615C304.217,450.826,280.365,456,256,456C231.693,456,207.897,450.85,186.039,440.973z    M471.238,475.829C470.639,477.276,468.2,482,462,482c-2.637,0-5.172-1.034-7.069-2.932l-61.688-61.679   c4.627-4.836,8.992-9.92,13.086-15.208l62.741,62.75C473.454,469.316,471.838,474.381,471.238,475.829z M423.348,315.97   c-19.297-0.249-38.214-3.212-56.43-8.841c19.269-28.224,34.011-58.781,43.991-91.236C420.828,237.795,426,261.641,426,286   C426,296.07,425.1,306.116,423.348,315.97z M462,30c16.542,0,30,13.458,30,30s-13.458,30-30,30c-16.658,0-30-13.522-30-30   C432,43.458,445.458,30,462,30z M285.974,118.655c-0.474,36.708-10.772,71.903-29.974,102.75   c-19.203-30.847-29.5-66.042-29.974-102.75C245.744,115.16,266.255,115.16,285.974,118.655z M50,30c16.542,0,30,13.458,30,30   c0,16.637-13.5,30-30,30c-16.542,0-30-13.458-30-30S33.458,30,50,30z"
   id="path4"
   style="fill:#ffffff" />
</g>















</svg>