<?xml version="1.0" encoding="UTF-8" standalone="no"?>
<!-- Generator: Adobe Illustrator 16.0.0, SVG Export Plug-In . SVG Version: 6.00 Build 0)  -->

<svg
   xmlns:dc="http://purl.org/dc/elements/1.1/"
   xmlns:cc="http://creativecommons.org/ns#"
   xmlns:rdf="http://www.w3.org/1999/02/22-rdf-syntax-ns#"
   xmlns:svg="http://www.w3.org/2000/svg"
   xmlns="http://www.w3.org/2000/svg"
   xmlns:sodipodi="http://sodipodi.sourceforge.net/DTD/sodipodi-0.dtd"
   xmlns:inkscape="http://www.inkscape.org/namespaces/inkscape"
   version="1.1"
   id="Capa_1"
   x="0px"
   y="0px"
   width="484.651px"
   height="484.65px"
   viewBox="0 0 484.651 484.65"
   style="enable-background:new 0 0 484.651 484.65;"
   xml:space="preserve"
   sodipodi:docname="yoga.svg"
   inkscape:version="0.92.4 5da689c313, 2019-01-14"><metadata
   id="metadata46"><rdf:RDF><cc:Work
       rdf:about=""><dc:format>image/svg+xml</dc:format><dc:type
         rdf:resource="http://purl.org/dc/dcmitype/StillImage" /></cc:Work></rdf:RDF></metadata><defs
   id="defs44" /><sodipodi:namedview
   pagecolor="#ffffff"
   bordercolor="#666666"
   borderopacity="1"
   objecttolerance="10"
   gridtolerance="10"
   guidetolerance="10"
   inkscape:pageopacity="0"
   inkscape:pageshadow="2"
   inkscape:window-width="1312"
   inkscape:window-height="704"
   id="namedview42"
   showgrid="false"
   inkscape:zoom="0.48694935"
   inkscape:cx="242.3255"
   inkscape:cy="242.325"
   inkscape:window-x="54"
   inkscape:window-y="30"
   inkscape:window-maximized="1"
   inkscape:current-layer="Capa_1" />
<g
   id="g9"
   style="fill:#ffffff">
	<g
   id="_x32_7_48_"
   style="fill:#ffffff">
		<g
   id="g6"
   style="fill:#ffffff">
			<path
   d="M243.458,153.771c0.085,0,0.171-0.006,0.257-0.006c0.087,0,0.172,0.006,0.258,0.006     c42.464,0,76.884-34.422,76.884-76.887c0-42.46-34.42-76.884-76.884-76.884c-0.086,0-0.171,0.006-0.258,0.006     c-0.086,0-0.171-0.006-0.257-0.006c-42.465,0-76.884,34.424-76.884,76.884C166.572,119.349,200.991,153.771,243.458,153.771z"
   id="path2"
   style="fill:#ffffff" />
			<path
   d="M436.565,311.038l-86.702-63.042l-27.417-66.953c-5.218-12.74-17.645-20.336-30.638-20.05l-0.004-0.03h-49.479h-49.477     l-0.004,0.03c-12.994-0.286-25.419,7.31-30.638,20.05l-27.418,66.953l-86.702,63.042c-14.443,10.502-17.64,30.724-7.136,45.169     c6.327,8.698,16.185,13.32,26.179,13.32c6.594,0,13.248-2.012,18.988-6.189l93.744-68.154l-2.389,24.675l-88.637,89.839     c-12.297,12.795-15.765,31.698-8.809,48.027c6.955,16.327,22.987,26.926,40.735,26.926h42.368     c-10.918-9.882-17.88-24.627-17.88-41.093c0-29.688,22.571-53.839,50.315-53.839c0,0,32.453,0,48.258,0     c15.807,0,28.35,12.922,28.35,12.922h-76.608c-21.085,0-38.24,18.354-38.24,40.917c0,22.562,17.155,40.916,38.24,40.916h74.192     c0.832-0.06,1.68-0.063,2.5-0.161h89.683c17.748,0,33.779-10.6,40.735-26.929c6.955-16.326,3.488-35.228-8.808-48.025     l-86.706-89.951h-0.024l-2.345-24.224l93.743,68.154c5.738,4.178,12.395,6.189,18.986,6.189c9.995,0,19.853-4.622,26.18-13.32     C454.205,341.762,451.009,321.54,436.565,311.038z"
   id="path4"
   style="fill:#ffffff" />
		</g>
	</g>
</g>
<g
   id="g11">
</g>
<g
   id="g13">
</g>
<g
   id="g15">
</g>
<g
   id="g17">
</g>
<g
   id="g19">
</g>
<g
   id="g21">
</g>
<g
   id="g23">
</g>
<g
   id="g25">
</g>
<g
   id="g27">
</g>
<g
   id="g29">
</g>
<g
   id="g31">
</g>
<g
   id="g33">
</g>
<g
   id="g35">
</g>
<g
   id="g37">
</g>
<g
   id="g39">
</g>
</svg>